In a dusty, underpopulated California resort town, a naive southern waif, Pinky Rose (Sissy Spacek), idolizes and befriends her fellow nurse, the would-be sophisticate and ΓÇ£thoroughly modernΓÇ¥ Millie Lammoreaux (Shelley Duvall). When Millie takes Pinky in as her roommate, PinkyΓÇÖs hero worship evolves into something far stranger and more sinister than either could have anticipated. Featuring brilliant performances from Spacek and Duvall, this dreamlike masterpiece from Robert Altman careens from the humorous to the chilling to the surreal, resulting in one of the most unusual and compelling films of the 1970s.

_______________________________________________


Criterion Rip

General
Format                           : AVI
Format/Info                      : Audio Video Interleave
File size                        : 2.00 GiB
Duration                         : 2h 3mn
Overall bit rate                 : 2 313 Kbps

Video
ID                               : 0
Format                           : MPEG-4 Visual
Format profile                   : Advanced Simple@L5
Format settings, BVOP            : Yes
Format settings, QPel            : No
Format settings, GMC             : No warppoints
Format settings, Matrix          : Default (H.263)
Muxing mode                      : Packed bitstream
Codec ID                         : XVID
Codec ID/Hint                    : XviD
Duration                         : 2h 3mn
Bit rate                         : 2 108 Kbps
Width                            : 720 pixels
Height                           : 304 pixels
Display aspect ratio             : 2.35:1
Frame rate                       : 23.976 fps
Color space                      : YUV
Chroma subsampling               : 4:2:0
Bit depth                        : 8 bits
Scan type                        : Progressive
Compression mode                 : Lossy
Bits/(Pixel*Frame)               : 0.402
Stream size                      : 1.82 GiB (91%)
Writing library                  : XviD 1.2.1 (UTC 2008-12-04)

Audio
ID                               : 1
Format                           : AC-3
Format/Info                      : Audio Coding 3
Mode extension                   : CM (complete main)
Codec ID                         : 2000
Duration                         : 2h 3mn
Bit rate mode                    : Constant
Bit rate                         : 192 Kbps
Channel(s)                       : 1 channel
Channel positions                : Front: C
Sampling rate                    : 48.0 KHz
Bit depth                        : 16 bits
Compression mode                 : Lossy
Stream size                      : 170 MiB (8%)
Alignment                        : Split accross interleaves
Interleave, duration             : 42 ms (1.00 video frame)
Interleave, preload duration     : 500 ms

